<svg xmlns="http://www.w3.org/2000/svg" width="197" height="112" viewBox="0 0 197 112"><path fill="currentColor" d="M99.5,0 L99.5007107,24.004718 C110.678701,24.100911 121.272545,25.6679984 131.279531,28.7047389 L139.090433,5.67873191 L140.98441,6.32126809 L133.186811,29.3036281 C143.753659,32.7338469 153.65605,37.8274698 162.890717,44.5830018 L174.169746,28.4275629 L175.809643,29.5724371 L164.495918,45.7791118 C168.735695,48.9965468 172.832285,52.5702431 176.785364,56.5000523 L195.92219,56.5 L195.92219,58.5 L177.613,58.5 L177.468019,58.6378199 C174.200542,61.7266019 170.847806,64.5901101 167.409963,67.2282752 L177.11307,80.4172602 L175.502109,81.6025042 L165.812461,68.4334204 C156.266109,75.5120073 146.07361,80.8791673 135.238189,84.5334455 L141.633221,103.268362 L139.740435,103.914398 L133.337634,85.1547598 C122.3405,88.6369132 110.690365,90.3787347 98.3905315,90.3787347 L98.5,90.378 L98.5,111.277782 L96.5,111.277782 L96.5007024,90.3649537 C84.4250521,90.188358 72.9826497,88.3145624 62.1766721,84.745 L55.9510493,103.900419 L54.0489507,103.282341 L60.2823069,84.0995693 C49.7751002,80.4098414 39.8781912,75.0945194 30.5945618,68.1549483 L20.8085296,81.5983377 L19.1914704,80.4214266 L29.0012665,66.9433455 C25.6927013,64.3842718 22.4632477,61.6157425 19.3130437,58.6378199 L19.168,58.5 L0,58.5 L0,56.5 L19.9964557,56.499801 C23.8763776,52.6454658 27.8941073,49.1336987 32.0493393,45.9646399 L19.2134627,29.6175427 L20.7865373,28.3824573 L33.6495669,44.7661396 C42.5106493,38.250051 51.9864181,33.2665093 62.0739863,29.8168389 L54.0536393,6.32311207 L55.9463607,5.67688793 L63.9729702,29.1878741 C74.7614922,25.7298194 86.2390971,24 98.4023325,24 L97.5,24.003 L97.5,0 L99.5,0 Z M98.4023325,26 C68.7623392,26 43.3155752,36.4330037 22.0093826,57.3231711 L21.437,57.887 L22.0120418,58.4201461 C43.5094933,78.1956717 68.6562076,88.1740365 97.4973591,88.3756175 L98.3905315,88.3787347 C127.605979,88.3787347 153.049946,78.3995431 174.769021,58.4201461 L175.343,57.887 L174.772363,57.3229246 C153.698578,36.6460885 128.560962,26.2140057 99.3083641,26.003259 Z" transform="translate(.425 .15)"/></svg>