<svg xmlns="http://www.w3.org/2000/svg" width="24" height="24" viewBox="0 0 24 24"><path fill="currentColor" d="M723.64,547.64 C723.87,547.14 724,546.59 724,546 C724,543.79 722.21,542 720,542 C717.79,542 716,543.79 716,546 C716,548.21 717.79,550 720,550 C720.59,550 721.14,549.87 721.64,549.64 L724,552 L721.64,554.36 C721.14,554.13 720.59,554 720,554 C717.79,554 716,555.79 716,558 C716,560.21 717.79,562 720,562 C722.21,562 724,560.21 724,558 C724,557.41 723.87,556.86 723.64,556.36 L726,554 L733,561 L736,561 L736,560 L723.64,547.64 Z M720,548 C718.9,548 718,547.11 718,546 C718,544.89 718.9,544 720,544 C721.1,544 722,544.89 722,546 C722,547.11 721.1,548 720,548 Z M720,560 C718.9,560 718,559.11 718,558 C718,556.89 718.9,556 720,556 C721.1,556 722,556.89 722,558 C722,559.11 721.1,560 720,560 Z M726,552.5 C725.72,552.5 725.5,552.28 725.5,552 C725.5,551.72 725.72,551.5 726,551.5 C726.28,551.5 726.5,551.72 726.5,552 C726.5,552.28 726.28,552.5 726,552.5 Z M733,543 L727,549 L729,551 L736,544 L736,543 L733,543 Z" transform="translate(-714 -540)"/></svg>
