<svg xmlns="http://www.w3.org/2000/svg" width="24" height="24" viewBox="0 0 24 24"><path fill="currentColor" d="M1801.50002,554.99997 L1800.71002,554.99997 L1800.43002,554.72997 C1801.41002,553.58997 1802.00002,552.10997 1802.00002,550.5 C1802.00002,546.91 1799.09002,544 1795.5,544 C1791.91,544 1789,546.91 1789,550.5 C1789,554.08997 1791.91,556.99997 1795.5,556.99997 C1797.11002,556.99997 1798.59002,556.40997 1799.73002,555.42997 L1800.00002,555.70997 L1800.00002,556.49997 L1805.00002,561.48997 L1806.49002,559.99997 L1801.50002,554.99997 Z M1795.5,554.99997 C1793.01,554.99997 1791,552.98997 1791,550.5 C1791,548.01 1793.01,546 1795.5,546 C1797.99002,546 1800.00002,548.01 1800.00002,550.5 C1800.00002,552.98997 1797.99002,554.99997 1795.5,554.99997 Z" transform="translate(-1786 -541)"/></svg>
