<svg width="28" height="28" viewBox="0 0 28 28" fill="none" xmlns="http://www.w3.org/2000/svg">
  <path fill-rule="evenodd" clip-rule="evenodd" d="M3 0C1.34315 0 0 1.34315 0 3V25C0 26.6569 1.34315 28 3 28H25C26.6569 28 28 26.6569 28 25V3C28 1.34315 26.6569 0 25 0H3ZM10.5806 22.1668L14.0001 25.5688L17.4196 22.1668H22.1668V17.4196L25.5688 14.0001L22.1668 10.5806V5.83345H17.4196L14.0001 2.43262L10.5806 5.83345H5.83345V10.5806L2.43262 14.0001L5.83345 17.4196V22.1668H10.5806ZM17.492 17.492C16.5298 18.4548 15.3659 18.9363 14.0001 18.9363C12.6343 18.9363 11.4704 18.4548 10.5083 17.492C9.54617 16.5291 9.06473 15.3651 9.06395 14.0001C9.06317 12.6351 9.54462 11.4712 10.5083 10.5083C11.472 9.54539 12.6359 9.06395 14.0001 9.06395C15.3643 9.06395 16.5283 9.54539 17.492 10.5083C18.4556 11.4712 18.9371 12.6351 18.9363 14.0001C18.9355 15.3651 18.4541 16.5291 17.492 17.492ZM16.9168 21.0001L14.0001 23.9168L11.0835 21.0001H7.00012V16.9168L4.08345 14.0001L7.00012 11.0835V7.00012H11.0835L14.0001 4.08345L16.9168 7.00012H21.0001V11.0835L23.9168 14.0001L21.0001 16.9168V21.0001H16.9168Z" fill="currentColor"/>
</svg>