<svg xmlns="http://www.w3.org/2000/svg" width="197" height="112" viewBox="0 0 197 112"><g fill="none" fill-rule="evenodd" stroke="#FFF" stroke-width="2" transform="translate(.425 .15)"><path d="M20,57.9111212 C41.7556979,35.9703737 67.8898088,25 98.4023325,25 C128.914856,25 155.0411,35.9703737 176.781063,57.9111212 C154.588992,78.8895302 128.458815,89.3787347 98.3905315,89.3787347 C68.3222478,89.3787347 42.1920707,78.8895302 20,57.9111212 Z"/><line x1="98.5" x2="98.5" y1="24.851"/><line x1="97.5" x2="97.5" y1="89" y2="111.278"/><line x1="134" x2="140.687" y1="84" y2="103.591"/><line x1="166" x2="176.308" y1="67" y2="81.01"/><line x1="61.366" x2="55" y1="84" y2="103.591"/><line x1="30.197" x2="20" y1="67" y2="81.01"/><line x1="20.575" y1="57.5" y2="57.5"/><line x1="176" x2="195.922" y1="57.5" y2="57.5"/><line x1="132" x2="140.037" y1="29.692" y2="6"/><line x1="163" x2="174.99" y1="46.174" y2="29"/><line x1="63.183" x2="55" y1="29.968" y2="6"/><line x1="33.283" x2="20" y1="45.918" y2="29"/></g></svg>