<svg xmlns="http://www.w3.org/2000/svg" width="588" height="708" viewBox="0 0 588 708"><path fill="none" stroke="#FFF" stroke-width="2" d="M163.443955 477.357976C169.005979 476.525029 171.786992 474.163858 171.786992 470.274462 171.786992 464.440368 168.706789 459.21902 161.457665 459.21902 154.208542 459.21902 148.590419 463.190948 148.590419 470.274462 148.590419 477.357976 150.657738 487.945276 165.388689 487.945276 180.119641 487.945276 184.620995 476.789963 184.620995 468.004492 184.620995 459.21902 176.602081 442.51778 161.457665 442.51778 146.31325 442.51778 128.160314 450.852795 128.160314 475.146264 128.160314 499.439732 149.602262 514 165.388689 514 181.175116 514 217 500.122179 217 468.004492 217 435.886804 192.78535 410.96562 161.457665 410.96562 130.129981 410.96562 96.7664072 410.96562 52.7010685 410.96562 27.0804561 410.96562 0 387.871637 0 350.741704 0 313.611772 26.003557 297 50.6607591 297 75.3179612 297 90.4208221 317.789683 90.4208221 339.269095 90.4208221 360.748508 69.3362393 369.421625 57.9368932 369.421625 46.5375472 369.421625 32.5337939 359.798699 32.5337939 343.92139 32.5337939 328.044081 46.019159 323.037039 52.7010685 323.037039 59.3829781 323.037039 69.6603617 327.796486 69.6603617 339.269095 69.6603617 350.741704 58.8344631 352.735991 55.7677658 352.735991 52.7010685 352.735991 45.7002308 350.583576 45.7002308 342.200707 45.7002308 337.029021 48.5581184 334.234731 54.2738936 333.817837M113.263629 410.037733 113.263629 706.037733M49.2636295 706.037733 49.2636295 410.037733M68.2636295 706.037733 68.2636295 410.037733M95.2636295 410.037733 95.2636295 706.037733M48.7633616 296C54.3358596 246.383049 75.7533072 202.951059 113.015704 165.70403 168.9093 109.833487 230.788631 116.340772 259.641977 116.340772 288.495324 116.340772 345.724322 113.393631 345.724322 101.699762 345.724322 81.4681239 250.574871 65.8961167 251.326517 37.3558622 251.982395 12.4519541 335.772459 0 502.696709 0L586.032829 0" transform="translate(1.236 1.962)"/></svg>